<mxfile host="app.diagrams.net" modified="2023-09-10T07:56:15.301Z" agent="Mozilla/5.0 (X11; Linux x86_64) AppleWebKit/537.36 (KHTML, like Gecko) Chrome/107.0.0.0 Safari/537.36" etag="8TJCyC6dJDhVJEcv-ggz" version="21.7.2" type="device">
  <diagram name="Page-1" id="naQljppujzwu4532Y_s4">
    <mxGraphModel dx="611" dy="329" grid="0" gridSize="10" guides="1" tooltips="1" connect="1" arrows="1" fold="1" page="1" pageScale="1" pageWidth="850" pageHeight="1100" math="0" shadow="0">
      <root>
        <mxCell id="0" />
        <mxCell id="1" parent="0" />
        <mxCell id="UISnXY9ua4YGHBuGHKZ1-1" value="Node 1" style="rounded=0;whiteSpace=wrap;html=1;fillColor=#FFCC99;" vertex="1" parent="1">
          <mxGeometry x="71" y="46" width="195" height="113" as="geometry" />
        </mxCell>
        <mxCell id="UISnXY9ua4YGHBuGHKZ1-2" value="Node 3" style="rounded=0;whiteSpace=wrap;html=1;fillColor=#FFCC99;" vertex="1" parent="1">
          <mxGeometry x="186" y="184" width="195" height="113" as="geometry" />
        </mxCell>
        <mxCell id="UISnXY9ua4YGHBuGHKZ1-3" value="Node 2" style="rounded=0;whiteSpace=wrap;html=1;fillColor=#FFCC99;" vertex="1" parent="1">
          <mxGeometry x="298" y="46" width="195" height="113" as="geometry" />
        </mxCell>
        <mxCell id="UISnXY9ua4YGHBuGHKZ1-4" value="Process 1" style="rounded=0;whiteSpace=wrap;html=1;fillColor=#CCFF99;" vertex="1" parent="1">
          <mxGeometry x="158" y="127" width="103" height="23" as="geometry" />
        </mxCell>
        <mxCell id="UISnXY9ua4YGHBuGHKZ1-5" value="Process 2" style="rounded=0;whiteSpace=wrap;html=1;fillColor=#CCFF99;" vertex="1" parent="1">
          <mxGeometry x="383" y="127" width="103" height="23" as="geometry" />
        </mxCell>
        <mxCell id="UISnXY9ua4YGHBuGHKZ1-6" value="Process 3" style="rounded=0;whiteSpace=wrap;html=1;fillColor=#CCFF99;" vertex="1" parent="1">
          <mxGeometry x="272" y="263" width="103" height="23" as="geometry" />
        </mxCell>
      </root>
    </mxGraphModel>
  </diagram>
</mxfile>
